<svg width="16" height="14" viewBox="0 0 16 14" fill="none" xmlns="http://www.w3.org/2000/svg">
<path d="M8.7 6.33333H12.06C12.8441 6.33333 13.2361 6.33333 13.5356 6.47866C13.799 6.60649 14.0132 6.81046 14.1474 7.06135C14.3 7.34656 14.3 7.71993 14.3 8.46667V13M8.7 13V3.13333C8.7 2.3866 8.7 2.01323 8.54741 1.72801C8.41319 1.47713 8.19901 1.27316 7.93559 1.14532C7.63611 1 7.24407 1 6.46 1H3.94C3.15593 1 2.76389 1 2.46441 1.14532C2.20099 1.27316 1.98681 1.47713 1.85259 1.72801C1.7 2.01323 1.7 2.3866 1.7 3.13333V13M15 13H1M4.15 3.66667H6.25M4.15 6.33333H6.25M4.15 9H6.25" stroke="white" stroke-linecap="round" stroke-linejoin="round"/>
</svg>
