<svg width="39" height="53" viewBox="0 0 39 53" fill="none" xmlns="http://www.w3.org/2000/svg">
<g filter="url(#filter0_d_5007_22282)">
<path fill-rule="evenodd" clip-rule="evenodd" d="M17.1275 43.0296C8.00909 31.4866 4.38672 21.9511 4.38672 16.0541C4.38672 7.64779 11.2567 0.74707 19.6256 0.74707C27.9946 0.74707 34.7397 7.64779 34.7397 16.0541C34.7397 21.9511 31.1173 31.4866 22.1238 43.0296C20.7498 44.6607 18.3766 44.6607 17.1275 43.0296ZM19.6256 6.89498C24.622 6.89498 28.744 10.9099 28.744 16.0541C28.744 21.0728 24.622 25.2132 19.6256 25.2132C14.5044 25.2132 10.5073 21.0728 10.5073 16.0541C10.5073 10.9099 14.5044 6.89498 19.6256 6.89498Z" fill="#D22630"/>
</g>
<defs>
<filter id="filter0_d_5007_22282" x="0.386719" y="0.74707" width="38.3516" height="51.5059" filterUnits="userSpaceOnUse" color-interpolation-filters="sRGB">
<feFlood flood-opacity="0" result="BackgroundImageFix"/>
<feColorMatrix in="SourceAlpha" type="matrix" values="0 0 0 0 0 0 0 0 0 0 0 0 0 0 0 0 0 0 127 0" result="hardAlpha"/>
<feOffset dy="4"/>
<feGaussianBlur stdDeviation="2"/>
<feComposite in2="hardAlpha" operator="out"/>
<feColorMatrix type="matrix" values="0 0 0 0 0 0 0 0 0 0 0 0 0 0 0 0 0 0 0.25 0"/>
<feBlend mode="normal" in2="BackgroundImageFix" result="effect1_dropShadow_5007_22282"/>
<feBlend mode="normal" in="SourceGraphic" in2="effect1_dropShadow_5007_22282" result="shape"/>
</filter>
</defs>
</svg>
