<svg xmlns="http://www.w3.org/2000/svg" width="24" height="24" viewBox="0 0 24 24" fill="none">
              <path d="M12.6314 6.04419C12.8606 5.50932 12.9753 5.24189 13.1605 5.12041C13.3224 5.01418 13.5198 4.97617 13.7096 5.01466C13.9267 5.05866 14.1324 5.2644 14.5439 5.67587L18.3241 9.45611C18.7356 9.86759 18.9413 10.0733 18.9853 10.2904C19.0238 10.4802 18.9858 10.6776 18.8796 10.8396C18.7581 11.0248 18.4907 11.1394 17.9558 11.3686L16.1225 12.1543C16.0447 12.1877 16.0058 12.2043 15.9693 12.2252C15.9369 12.2437 15.906 12.2646 15.8768 12.2878C15.8439 12.3139 15.814 12.3439 15.7541 12.4037L14.6069 13.551C14.5133 13.6445 14.4665 13.6913 14.4293 13.7446C14.3963 13.792 14.369 13.843 14.3479 13.8967C14.3242 13.9572 14.3112 14.0221 14.2853 14.1519L13.7466 16.8453C13.6066 17.5452 13.5366 17.8952 13.3521 18.0589C13.1913 18.2016 12.9762 18.2667 12.7633 18.2372C12.519 18.2033 12.2666 17.951 11.7619 17.4462L6.55382 12.2382C6.04908 11.7334 5.79671 11.481 5.76283 11.2367C5.73332 11.0238 5.79845 10.8087 5.94109 10.6479C6.10482 10.4634 6.4548 10.3934 7.15474 10.2534L9.84814 9.71474C9.97792 9.68878 10.0428 9.6758 10.1033 9.65207C10.157 9.631 10.2081 9.60369 10.2554 9.57068C10.3087 9.5335 10.3555 9.48671 10.4491 9.39313L11.5963 8.24587C11.6562 8.18603 11.6861 8.15612 11.7122 8.12323C11.7354 8.09402 11.7563 8.06308 11.7749 8.03068C11.7957 7.99422 11.8124 7.95533 11.8457 7.87755L12.6314 6.04419Z" fill="#404041"/>
              <path d="M9.15781 14.8422L5 19M11.5963 8.24587L10.4491 9.39313C10.3555 9.48671 10.3087 9.5335 10.2554 9.57069C10.2081 9.60369 10.157 9.631 10.1033 9.65207C10.0428 9.6758 9.97792 9.68878 9.84814 9.71474L7.15474 10.2534C6.4548 10.3934 6.10482 10.4634 5.94109 10.6479C5.79845 10.8087 5.73332 11.0238 5.76283 11.2367C5.79671 11.481 6.04908 11.7334 6.55382 12.2382L11.7619 17.4462C12.2666 17.951 12.519 18.2033 12.7633 18.2372C12.9762 18.2667 13.1913 18.2016 13.3521 18.0589C13.5366 17.8952 13.6066 17.5452 13.7466 16.8453L14.2853 14.1519C14.3112 14.0221 14.3242 13.9572 14.3479 13.8967C14.369 13.843 14.3963 13.792 14.4293 13.7446C14.4665 13.6913 14.5133 13.6445 14.6069 13.551L15.7541 12.4037C15.814 12.3439 15.8439 12.3139 15.8768 12.2878C15.906 12.2646 15.9369 12.2437 15.9693 12.2252C16.0058 12.2043 16.0447 12.1877 16.1225 12.1543L17.9558 11.3686C18.4907 11.1394 18.7581 11.0248 18.8796 10.8396C18.9858 10.6776 19.0238 10.4802 18.9853 10.2904C18.9413 10.0733 18.7356 9.86759 18.3241 9.45611L14.5439 5.67587C14.1324 5.2644 13.9267 5.05866 13.7096 5.01466C13.5198 4.97617 13.3224 5.01418 13.1605 5.12041C12.9753 5.24189 12.8606 5.50932 12.6314 6.04419L11.8457 7.87755C11.8124 7.95533 11.7957 7.99422 11.7749 8.03068C11.7563 8.06308 11.7354 8.09402 11.7122 8.12323C11.6861 8.15612 11.6562 8.18603 11.5963 8.24587Z" stroke="#404041" stroke-linecap="round" stroke-linejoin="round"/>
            </svg>